<mxfile host="app.diagrams.net" modified="2022-06-01T11:47:07.020Z" agent="5.0 (Windows NT 10.0; Win64; x64) AppleWebKit/537.36 (KHTML, like Gecko) Chrome/102.0.5005.63 Safari/537.36" etag="obn4Ndh5oOdq42UHEcDf" version="18.1.3" type="github">
  <diagram id="KgAGAcBBAxpBad_a0bg3" name="Database">
    <mxGraphModel dx="1422" dy="762" grid="1" gridSize="10" guides="1" tooltips="1" connect="1" arrows="1" fold="1" page="1" pageScale="1" pageWidth="827" pageHeight="1169" math="0" shadow="0">
      <root>
        <mxCell id="0" />
        <mxCell id="1" parent="0" />
        <mxCell id="wrY-g1YtcL3_QzCpNkvP-1" value="network_model" style="swimlane;fontStyle=0;childLayout=stackLayout;horizontal=1;startSize=30;horizontalStack=0;resizeParent=1;resizeParentMax=0;resizeLast=0;collapsible=1;marginBottom=0;" vertex="1" parent="1">
          <mxGeometry x="20" y="330" width="156.5" height="120" as="geometry" />
        </mxCell>
        <mxCell id="wrY-g1YtcL3_QzCpNkvP-2" value="network: CHAR PK" style="text;strokeColor=#b85450;fillColor=#f8cecc;align=left;verticalAlign=middle;spacingLeft=4;spacingRight=4;overflow=hidden;points=[[0,0.5],[1,0.5]];portConstraint=eastwest;rotatable=0;" vertex="1" parent="wrY-g1YtcL3_QzCpNkvP-1">
          <mxGeometry y="30" width="156.5" height="30" as="geometry" />
        </mxCell>
        <mxCell id="wrY-g1YtcL3_QzCpNkvP-4" value="url: CHAR" style="text;strokeColor=none;fillColor=none;align=left;verticalAlign=middle;spacingLeft=4;spacingRight=4;overflow=hidden;points=[[0,0.5],[1,0.5]];portConstraint=eastwest;rotatable=0;" vertex="1" parent="wrY-g1YtcL3_QzCpNkvP-1">
          <mxGeometry y="60" width="156.5" height="30" as="geometry" />
        </mxCell>
        <mxCell id="wrY-g1YtcL3_QzCpNkvP-6" value="descriptions: TEXT" style="text;strokeColor=none;fillColor=none;align=left;verticalAlign=middle;spacingLeft=4;spacingRight=4;overflow=hidden;points=[[0,0.5],[1,0.5]];portConstraint=eastwest;rotatable=0;" vertex="1" parent="wrY-g1YtcL3_QzCpNkvP-1">
          <mxGeometry y="90" width="156.5" height="30" as="geometry" />
        </mxCell>
        <mxCell id="wrY-g1YtcL3_QzCpNkvP-5" value="wallet_system" style="shape=datastore;whiteSpace=wrap;html=1;" vertex="1" parent="1">
          <mxGeometry x="374" y="20" width="80" height="80" as="geometry" />
        </mxCell>
        <mxCell id="wrY-g1YtcL3_QzCpNkvP-7" value="token_model" style="swimlane;fontStyle=0;childLayout=stackLayout;horizontal=1;startSize=30;horizontalStack=0;resizeParent=1;resizeParentMax=0;resizeLast=0;collapsible=1;marginBottom=0;" vertex="1" parent="1">
          <mxGeometry x="356.5" y="120" width="150" height="240" as="geometry" />
        </mxCell>
        <mxCell id="wrY-g1YtcL3_QzCpNkvP-9" value="id INT PK" style="text;strokeColor=#d6b656;fillColor=#fff2cc;align=left;verticalAlign=middle;spacingLeft=4;spacingRight=4;overflow=hidden;points=[[0,0.5],[1,0.5]];portConstraint=eastwest;rotatable=0;" vertex="1" parent="wrY-g1YtcL3_QzCpNkvP-7">
          <mxGeometry y="30" width="150" height="30" as="geometry" />
        </mxCell>
        <mxCell id="wrY-g1YtcL3_QzCpNkvP-10" value="token: CHAR" style="text;strokeColor=none;fillColor=none;align=left;verticalAlign=middle;spacingLeft=4;spacingRight=4;overflow=hidden;points=[[0,0.5],[1,0.5]];portConstraint=eastwest;rotatable=0;" vertex="1" parent="wrY-g1YtcL3_QzCpNkvP-7">
          <mxGeometry y="60" width="150" height="30" as="geometry" />
        </mxCell>
        <mxCell id="wrY-g1YtcL3_QzCpNkvP-13" value="network: ONETOONE" style="text;strokeColor=#b85450;fillColor=#f8cecc;align=left;verticalAlign=middle;spacingLeft=4;spacingRight=4;overflow=hidden;points=[[0,0.5],[1,0.5]];portConstraint=eastwest;rotatable=0;" vertex="1" parent="wrY-g1YtcL3_QzCpNkvP-7">
          <mxGeometry y="90" width="150" height="30" as="geometry" />
        </mxCell>
        <mxCell id="wrY-g1YtcL3_QzCpNkvP-15" value="decimals: INT" style="text;strokeColor=none;fillColor=none;align=left;verticalAlign=middle;spacingLeft=4;spacingRight=4;overflow=hidden;points=[[0,0.5],[1,0.5]];portConstraint=eastwest;rotatable=0;" vertex="1" parent="wrY-g1YtcL3_QzCpNkvP-7">
          <mxGeometry y="120" width="150" height="30" as="geometry" />
        </mxCell>
        <mxCell id="wrY-g1YtcL3_QzCpNkvP-16" value="address: CHAR" style="text;strokeColor=none;fillColor=none;align=left;verticalAlign=middle;spacingLeft=4;spacingRight=4;overflow=hidden;points=[[0,0.5],[1,0.5]];portConstraint=eastwest;rotatable=0;" vertex="1" parent="wrY-g1YtcL3_QzCpNkvP-7">
          <mxGeometry y="150" width="150" height="30" as="geometry" />
        </mxCell>
        <mxCell id="wrY-g1YtcL3_QzCpNkvP-18" value="descriptions: TEXT" style="text;strokeColor=none;fillColor=none;align=left;verticalAlign=middle;spacingLeft=4;spacingRight=4;overflow=hidden;points=[[0,0.5],[1,0.5]];portConstraint=eastwest;rotatable=0;" vertex="1" parent="wrY-g1YtcL3_QzCpNkvP-7">
          <mxGeometry y="180" width="150" height="30" as="geometry" />
        </mxCell>
        <mxCell id="wrY-g1YtcL3_QzCpNkvP-17" value="token_info: JSON" style="text;strokeColor=none;fillColor=none;align=left;verticalAlign=middle;spacingLeft=4;spacingRight=4;overflow=hidden;points=[[0,0.5],[1,0.5]];portConstraint=eastwest;rotatable=0;" vertex="1" parent="wrY-g1YtcL3_QzCpNkvP-7">
          <mxGeometry y="210" width="150" height="30" as="geometry" />
        </mxCell>
        <mxCell id="wrY-g1YtcL3_QzCpNkvP-14" style="edgeStyle=orthogonalEdgeStyle;rounded=0;orthogonalLoop=1;jettySize=auto;html=1;exitX=0;exitY=0.5;exitDx=0;exitDy=0;entryX=1;entryY=0.5;entryDx=0;entryDy=0;fillColor=#f8cecc;strokeColor=#b85450;" edge="1" parent="1" source="wrY-g1YtcL3_QzCpNkvP-13" target="wrY-g1YtcL3_QzCpNkvP-2">
          <mxGeometry relative="1" as="geometry" />
        </mxCell>
        <mxCell id="wrY-g1YtcL3_QzCpNkvP-28" value="transaction_status_model" style="swimlane;fontStyle=0;childLayout=stackLayout;horizontal=1;startSize=30;horizontalStack=0;resizeParent=1;resizeParentMax=0;resizeLast=0;collapsible=1;marginBottom=0;" vertex="1" parent="1">
          <mxGeometry x="20" y="470" width="156.5" height="120" as="geometry" />
        </mxCell>
        <mxCell id="wrY-g1YtcL3_QzCpNkvP-30" value="id: INT PK" style="text;strokeColor=#82b366;fillColor=#d5e8d4;align=left;verticalAlign=middle;spacingLeft=4;spacingRight=4;overflow=hidden;points=[[0,0.5],[1,0.5]];portConstraint=eastwest;rotatable=0;" vertex="1" parent="wrY-g1YtcL3_QzCpNkvP-28">
          <mxGeometry y="30" width="156.5" height="30" as="geometry" />
        </mxCell>
        <mxCell id="wrY-g1YtcL3_QzCpNkvP-32" value="title: CHAR" style="text;strokeColor=none;fillColor=none;align=left;verticalAlign=middle;spacingLeft=4;spacingRight=4;overflow=hidden;points=[[0,0.5],[1,0.5]];portConstraint=eastwest;rotatable=0;" vertex="1" parent="wrY-g1YtcL3_QzCpNkvP-28">
          <mxGeometry y="60" width="156.5" height="30" as="geometry" />
        </mxCell>
        <mxCell id="wrY-g1YtcL3_QzCpNkvP-34" value="descriptions: TEXT" style="text;strokeColor=none;fillColor=none;align=left;verticalAlign=middle;spacingLeft=4;spacingRight=4;overflow=hidden;points=[[0,0.5],[1,0.5]];portConstraint=eastwest;rotatable=0;" vertex="1" parent="wrY-g1YtcL3_QzCpNkvP-28">
          <mxGeometry y="90" width="156.5" height="30" as="geometry" />
        </mxCell>
        <mxCell id="wrY-g1YtcL3_QzCpNkvP-41" value="user_model" style="swimlane;fontStyle=0;childLayout=stackLayout;horizontal=1;startSize=30;horizontalStack=0;resizeParent=1;resizeParentMax=0;resizeLast=0;collapsible=1;marginBottom=0;" vertex="1" parent="1">
          <mxGeometry x="20" y="130" width="156.5" height="180" as="geometry" />
        </mxCell>
        <mxCell id="wrY-g1YtcL3_QzCpNkvP-42" value="id: INT PK" style="text;strokeColor=#9673a6;fillColor=#e1d5e7;align=left;verticalAlign=middle;spacingLeft=4;spacingRight=4;overflow=hidden;points=[[0,0.5],[1,0.5]];portConstraint=eastwest;rotatable=0;" vertex="1" parent="wrY-g1YtcL3_QzCpNkvP-41">
          <mxGeometry y="30" width="156.5" height="30" as="geometry" />
        </mxCell>
        <mxCell id="wrY-g1YtcL3_QzCpNkvP-44" value="username: CHAR" style="text;strokeColor=none;fillColor=none;align=left;verticalAlign=middle;spacingLeft=4;spacingRight=4;overflow=hidden;points=[[0,0.5],[1,0.5]];portConstraint=eastwest;rotatable=0;" vertex="1" parent="wrY-g1YtcL3_QzCpNkvP-41">
          <mxGeometry y="60" width="156.5" height="30" as="geometry" />
        </mxCell>
        <mxCell id="wrY-g1YtcL3_QzCpNkvP-46" value="first_name: CHAR" style="text;strokeColor=none;fillColor=none;align=left;verticalAlign=middle;spacingLeft=4;spacingRight=4;overflow=hidden;points=[[0,0.5],[1,0.5]];portConstraint=eastwest;rotatable=0;" vertex="1" parent="wrY-g1YtcL3_QzCpNkvP-41">
          <mxGeometry y="90" width="156.5" height="30" as="geometry" />
        </mxCell>
        <mxCell id="wrY-g1YtcL3_QzCpNkvP-45" value="last_name: CHAR" style="text;strokeColor=none;fillColor=none;align=left;verticalAlign=middle;spacingLeft=4;spacingRight=4;overflow=hidden;points=[[0,0.5],[1,0.5]];portConstraint=eastwest;rotatable=0;" vertex="1" parent="wrY-g1YtcL3_QzCpNkvP-41">
          <mxGeometry y="120" width="156.5" height="30" as="geometry" />
        </mxCell>
        <mxCell id="wrY-g1YtcL3_QzCpNkvP-47" value="        MORE FIELDS" style="text;strokeColor=none;fillColor=none;align=left;verticalAlign=middle;spacingLeft=4;spacingRight=4;overflow=hidden;points=[[0,0.5],[1,0.5]];portConstraint=eastwest;rotatable=0;" vertex="1" parent="wrY-g1YtcL3_QzCpNkvP-41">
          <mxGeometry y="150" width="156.5" height="30" as="geometry" />
        </mxCell>
        <mxCell id="wrY-g1YtcL3_QzCpNkvP-50" value="token_model" style="swimlane;fontStyle=0;childLayout=stackLayout;horizontal=1;startSize=30;horizontalStack=0;resizeParent=1;resizeParentMax=0;resizeLast=0;collapsible=1;marginBottom=0;" vertex="1" parent="1">
          <mxGeometry x="356.5" y="380" width="150" height="270" as="geometry" />
        </mxCell>
        <mxCell id="wrY-g1YtcL3_QzCpNkvP-51" value="id INT PK" style="text;align=left;verticalAlign=middle;spacingLeft=4;spacingRight=4;overflow=hidden;points=[[0,0.5],[1,0.5]];portConstraint=eastwest;rotatable=0;fillColor=#f5f5f5;fontColor=#333333;strokeColor=#666666;" vertex="1" parent="wrY-g1YtcL3_QzCpNkvP-50">
          <mxGeometry y="30" width="150" height="30" as="geometry" />
        </mxCell>
        <mxCell id="wrY-g1YtcL3_QzCpNkvP-52" value="address: CHAR" style="text;strokeColor=none;fillColor=none;align=left;verticalAlign=middle;spacingLeft=4;spacingRight=4;overflow=hidden;points=[[0,0.5],[1,0.5]];portConstraint=eastwest;rotatable=0;" vertex="1" parent="wrY-g1YtcL3_QzCpNkvP-50">
          <mxGeometry y="60" width="150" height="30" as="geometry" />
        </mxCell>
        <mxCell id="wrY-g1YtcL3_QzCpNkvP-58" value="private_key: CHAR" style="text;strokeColor=none;fillColor=none;align=left;verticalAlign=middle;spacingLeft=4;spacingRight=4;overflow=hidden;points=[[0,0.5],[1,0.5]];portConstraint=eastwest;rotatable=0;" vertex="1" parent="wrY-g1YtcL3_QzCpNkvP-50">
          <mxGeometry y="90" width="150" height="30" as="geometry" />
        </mxCell>
        <mxCell id="wrY-g1YtcL3_QzCpNkvP-59" value="public_key: CHAR" style="text;strokeColor=none;fillColor=none;align=left;verticalAlign=middle;spacingLeft=4;spacingRight=4;overflow=hidden;points=[[0,0.5],[1,0.5]];portConstraint=eastwest;rotatable=0;" vertex="1" parent="wrY-g1YtcL3_QzCpNkvP-50">
          <mxGeometry y="120" width="150" height="30" as="geometry" />
        </mxCell>
        <mxCell id="wrY-g1YtcL3_QzCpNkvP-60" value="passphrase: CHAR" style="text;strokeColor=none;fillColor=none;align=left;verticalAlign=middle;spacingLeft=4;spacingRight=4;overflow=hidden;points=[[0,0.5],[1,0.5]];portConstraint=eastwest;rotatable=0;" vertex="1" parent="wrY-g1YtcL3_QzCpNkvP-50">
          <mxGeometry y="150" width="150" height="30" as="geometry" />
        </mxCell>
        <mxCell id="wrY-g1YtcL3_QzCpNkvP-61" value="mnemonic_phrase: CHAR" style="text;strokeColor=none;fillColor=none;align=left;verticalAlign=middle;spacingLeft=4;spacingRight=4;overflow=hidden;points=[[0,0.5],[1,0.5]];portConstraint=eastwest;rotatable=0;" vertex="1" parent="wrY-g1YtcL3_QzCpNkvP-50">
          <mxGeometry y="180" width="150" height="30" as="geometry" />
        </mxCell>
        <mxCell id="wrY-g1YtcL3_QzCpNkvP-53" value="network: ONETOONE" style="text;strokeColor=#b85450;fillColor=#f8cecc;align=left;verticalAlign=middle;spacingLeft=4;spacingRight=4;overflow=hidden;points=[[0,0.5],[1,0.5]];portConstraint=eastwest;rotatable=0;" vertex="1" parent="wrY-g1YtcL3_QzCpNkvP-50">
          <mxGeometry y="210" width="150" height="30" as="geometry" />
        </mxCell>
        <mxCell id="wrY-g1YtcL3_QzCpNkvP-57" value="user_id: ONE" style="text;strokeColor=#9673a6;fillColor=#e1d5e7;align=left;verticalAlign=middle;spacingLeft=4;spacingRight=4;overflow=hidden;points=[[0,0.5],[1,0.5]];portConstraint=eastwest;rotatable=0;" vertex="1" parent="wrY-g1YtcL3_QzCpNkvP-50">
          <mxGeometry y="240" width="150" height="30" as="geometry" />
        </mxCell>
        <mxCell id="wrY-g1YtcL3_QzCpNkvP-62" style="edgeStyle=orthogonalEdgeStyle;rounded=0;orthogonalLoop=1;jettySize=auto;html=1;exitX=0;exitY=0.5;exitDx=0;exitDy=0;entryX=1;entryY=0.5;entryDx=0;entryDy=0;fillColor=#e1d5e7;strokeColor=#9673a6;" edge="1" parent="1" source="wrY-g1YtcL3_QzCpNkvP-57" target="wrY-g1YtcL3_QzCpNkvP-42">
          <mxGeometry relative="1" as="geometry" />
        </mxCell>
        <mxCell id="wrY-g1YtcL3_QzCpNkvP-63" style="edgeStyle=orthogonalEdgeStyle;rounded=0;orthogonalLoop=1;jettySize=auto;html=1;exitX=0;exitY=0.5;exitDx=0;exitDy=0;entryX=1;entryY=0.5;entryDx=0;entryDy=0;fillColor=#f8cecc;strokeColor=#b85450;" edge="1" parent="1" source="wrY-g1YtcL3_QzCpNkvP-53" target="wrY-g1YtcL3_QzCpNkvP-2">
          <mxGeometry relative="1" as="geometry" />
        </mxCell>
        <mxCell id="wrY-g1YtcL3_QzCpNkvP-64" value="balance_model" style="swimlane;fontStyle=0;childLayout=stackLayout;horizontal=1;startSize=30;horizontalStack=0;resizeParent=1;resizeParentMax=0;resizeLast=0;collapsible=1;marginBottom=0;" vertex="1" parent="1">
          <mxGeometry x="20" y="610" width="156.5" height="180" as="geometry" />
        </mxCell>
        <mxCell id="wrY-g1YtcL3_QzCpNkvP-65" value="id: INT PK" style="text;align=left;verticalAlign=middle;spacingLeft=4;spacingRight=4;overflow=hidden;points=[[0,0.5],[1,0.5]];portConstraint=eastwest;rotatable=0;" vertex="1" parent="wrY-g1YtcL3_QzCpNkvP-64">
          <mxGeometry y="30" width="156.5" height="30" as="geometry" />
        </mxCell>
        <mxCell id="wrY-g1YtcL3_QzCpNkvP-66" value="wallet: ONETOONE" style="text;strokeColor=#666666;fillColor=#f5f5f5;align=left;verticalAlign=middle;spacingLeft=4;spacingRight=4;overflow=hidden;points=[[0,0.5],[1,0.5]];portConstraint=eastwest;rotatable=0;fontColor=#333333;" vertex="1" parent="wrY-g1YtcL3_QzCpNkvP-64">
          <mxGeometry y="60" width="156.5" height="30" as="geometry" />
        </mxCell>
        <mxCell id="wrY-g1YtcL3_QzCpNkvP-67" value="token: ONETOONE" style="text;strokeColor=#d6b656;fillColor=#fff2cc;align=left;verticalAlign=middle;spacingLeft=4;spacingRight=4;overflow=hidden;points=[[0,0.5],[1,0.5]];portConstraint=eastwest;rotatable=0;" vertex="1" parent="wrY-g1YtcL3_QzCpNkvP-64">
          <mxGeometry y="90" width="156.5" height="30" as="geometry" />
        </mxCell>
        <mxCell id="wrY-g1YtcL3_QzCpNkvP-70" value="network: ONETOONE" style="text;strokeColor=#b85450;fillColor=#f8cecc;align=left;verticalAlign=middle;spacingLeft=4;spacingRight=4;overflow=hidden;points=[[0,0.5],[1,0.5]];portConstraint=eastwest;rotatable=0;" vertex="1" parent="wrY-g1YtcL3_QzCpNkvP-64">
          <mxGeometry y="120" width="156.5" height="30" as="geometry" />
        </mxCell>
        <mxCell id="wrY-g1YtcL3_QzCpNkvP-72" value="user_id: ONE" style="text;strokeColor=#9673a6;fillColor=#e1d5e7;align=left;verticalAlign=middle;spacingLeft=4;spacingRight=4;overflow=hidden;points=[[0,0.5],[1,0.5]];portConstraint=eastwest;rotatable=0;" vertex="1" parent="wrY-g1YtcL3_QzCpNkvP-64">
          <mxGeometry y="150" width="156.5" height="30" as="geometry" />
        </mxCell>
        <mxCell id="wrY-g1YtcL3_QzCpNkvP-68" style="edgeStyle=orthogonalEdgeStyle;rounded=0;orthogonalLoop=1;jettySize=auto;html=1;exitX=1;exitY=0.5;exitDx=0;exitDy=0;entryX=0;entryY=0.5;entryDx=0;entryDy=0;fillColor=#f5f5f5;strokeColor=#666666;" edge="1" parent="1" source="wrY-g1YtcL3_QzCpNkvP-66" target="wrY-g1YtcL3_QzCpNkvP-51">
          <mxGeometry relative="1" as="geometry" />
        </mxCell>
        <mxCell id="wrY-g1YtcL3_QzCpNkvP-69" style="edgeStyle=orthogonalEdgeStyle;rounded=0;orthogonalLoop=1;jettySize=auto;html=1;exitX=1;exitY=0.5;exitDx=0;exitDy=0;entryX=0;entryY=0.5;entryDx=0;entryDy=0;fillColor=#fff2cc;strokeColor=#d6b656;" edge="1" parent="1" source="wrY-g1YtcL3_QzCpNkvP-67" target="wrY-g1YtcL3_QzCpNkvP-9">
          <mxGeometry relative="1" as="geometry" />
        </mxCell>
        <mxCell id="wrY-g1YtcL3_QzCpNkvP-71" style="edgeStyle=orthogonalEdgeStyle;rounded=0;orthogonalLoop=1;jettySize=auto;html=1;exitX=1;exitY=0.5;exitDx=0;exitDy=0;entryX=1;entryY=0.5;entryDx=0;entryDy=0;fillColor=#f8cecc;strokeColor=#b85450;" edge="1" parent="1" source="wrY-g1YtcL3_QzCpNkvP-70" target="wrY-g1YtcL3_QzCpNkvP-2">
          <mxGeometry relative="1" as="geometry" />
        </mxCell>
        <mxCell id="wrY-g1YtcL3_QzCpNkvP-73" style="edgeStyle=orthogonalEdgeStyle;rounded=0;orthogonalLoop=1;jettySize=auto;html=1;exitX=1;exitY=0.5;exitDx=0;exitDy=0;entryX=1;entryY=0.25;entryDx=0;entryDy=0;fillColor=#e1d5e7;strokeColor=#9673a6;" edge="1" parent="1" source="wrY-g1YtcL3_QzCpNkvP-72" target="wrY-g1YtcL3_QzCpNkvP-41">
          <mxGeometry relative="1" as="geometry">
            <Array as="points">
              <mxPoint x="216.5" y="775" />
              <mxPoint x="216.5" y="175" />
            </Array>
          </mxGeometry>
        </mxCell>
        <mxCell id="wrY-g1YtcL3_QzCpNkvP-74" value="transaction_model" style="swimlane;fontStyle=0;childLayout=stackLayout;horizontal=1;startSize=30;horizontalStack=0;resizeParent=1;resizeParentMax=0;resizeLast=0;collapsible=1;marginBottom=0;" vertex="1" parent="1">
          <mxGeometry x="356.5" y="660" width="150" height="330" as="geometry" />
        </mxCell>
        <mxCell id="wrY-g1YtcL3_QzCpNkvP-75" value="id INT PK" style="text;align=left;verticalAlign=middle;spacingLeft=4;spacingRight=4;overflow=hidden;points=[[0,0.5],[1,0.5]];portConstraint=eastwest;rotatable=0;" vertex="1" parent="wrY-g1YtcL3_QzCpNkvP-74">
          <mxGeometry y="30" width="150" height="30" as="geometry" />
        </mxCell>
        <mxCell id="wrY-g1YtcL3_QzCpNkvP-76" value="time: INT" style="text;strokeColor=none;fillColor=none;align=left;verticalAlign=middle;spacingLeft=4;spacingRight=4;overflow=hidden;points=[[0,0.5],[1,0.5]];portConstraint=eastwest;rotatable=0;" vertex="1" parent="wrY-g1YtcL3_QzCpNkvP-74">
          <mxGeometry y="60" width="150" height="30" as="geometry" />
        </mxCell>
        <mxCell id="wrY-g1YtcL3_QzCpNkvP-77" value="transaction_hash: CHAR" style="text;strokeColor=none;fillColor=none;align=left;verticalAlign=middle;spacingLeft=4;spacingRight=4;overflow=hidden;points=[[0,0.5],[1,0.5]];portConstraint=eastwest;rotatable=0;" vertex="1" parent="wrY-g1YtcL3_QzCpNkvP-74">
          <mxGeometry y="90" width="150" height="30" as="geometry" />
        </mxCell>
        <mxCell id="wrY-g1YtcL3_QzCpNkvP-78" value="fee: DECIMAL" style="text;strokeColor=none;fillColor=none;align=left;verticalAlign=middle;spacingLeft=4;spacingRight=4;overflow=hidden;points=[[0,0.5],[1,0.5]];portConstraint=eastwest;rotatable=0;" vertex="1" parent="wrY-g1YtcL3_QzCpNkvP-74">
          <mxGeometry y="120" width="150" height="30" as="geometry" />
        </mxCell>
        <mxCell id="wrY-g1YtcL3_QzCpNkvP-83" value="amount: DECIMAL" style="text;strokeColor=none;fillColor=none;align=left;verticalAlign=middle;spacingLeft=4;spacingRight=4;overflow=hidden;points=[[0,0.5],[1,0.5]];portConstraint=eastwest;rotatable=0;" vertex="1" parent="wrY-g1YtcL3_QzCpNkvP-74">
          <mxGeometry y="150" width="150" height="30" as="geometry" />
        </mxCell>
        <mxCell id="wrY-g1YtcL3_QzCpNkvP-79" value="inputs: JSON" style="text;strokeColor=none;fillColor=none;align=left;verticalAlign=middle;spacingLeft=4;spacingRight=4;overflow=hidden;points=[[0,0.5],[1,0.5]];portConstraint=eastwest;rotatable=0;" vertex="1" parent="wrY-g1YtcL3_QzCpNkvP-74">
          <mxGeometry y="180" width="150" height="30" as="geometry" />
        </mxCell>
        <mxCell id="wrY-g1YtcL3_QzCpNkvP-84" value="outputs: JSON" style="text;strokeColor=none;fillColor=none;align=left;verticalAlign=middle;spacingLeft=4;spacingRight=4;overflow=hidden;points=[[0,0.5],[1,0.5]];portConstraint=eastwest;rotatable=0;" vertex="1" parent="wrY-g1YtcL3_QzCpNkvP-74">
          <mxGeometry y="210" width="150" height="30" as="geometry" />
        </mxCell>
        <mxCell id="wrY-g1YtcL3_QzCpNkvP-81" value="network: ONETOONE" style="text;strokeColor=#b85450;fillColor=#f8cecc;align=left;verticalAlign=middle;spacingLeft=4;spacingRight=4;overflow=hidden;points=[[0,0.5],[1,0.5]];portConstraint=eastwest;rotatable=0;" vertex="1" parent="wrY-g1YtcL3_QzCpNkvP-74">
          <mxGeometry y="240" width="150" height="30" as="geometry" />
        </mxCell>
        <mxCell id="wrY-g1YtcL3_QzCpNkvP-85" value="token: ONETOONE" style="text;strokeColor=#d6b656;fillColor=#fff2cc;align=left;verticalAlign=middle;spacingLeft=4;spacingRight=4;overflow=hidden;points=[[0,0.5],[1,0.5]];portConstraint=eastwest;rotatable=0;" vertex="1" parent="wrY-g1YtcL3_QzCpNkvP-74">
          <mxGeometry y="270" width="150" height="30" as="geometry" />
        </mxCell>
        <mxCell id="wrY-g1YtcL3_QzCpNkvP-82" value="user_id: ONE" style="text;strokeColor=#9673a6;fillColor=#e1d5e7;align=left;verticalAlign=middle;spacingLeft=4;spacingRight=4;overflow=hidden;points=[[0,0.5],[1,0.5]];portConstraint=eastwest;rotatable=0;" vertex="1" parent="wrY-g1YtcL3_QzCpNkvP-74">
          <mxGeometry y="300" width="150" height="30" as="geometry" />
        </mxCell>
        <mxCell id="wrY-g1YtcL3_QzCpNkvP-88" style="edgeStyle=orthogonalEdgeStyle;rounded=0;orthogonalLoop=1;jettySize=auto;html=1;exitX=0;exitY=0.5;exitDx=0;exitDy=0;entryX=1;entryY=0.25;entryDx=0;entryDy=0;fillColor=#e1d5e7;strokeColor=#9673a6;" edge="1" parent="1" source="wrY-g1YtcL3_QzCpNkvP-82" target="wrY-g1YtcL3_QzCpNkvP-41">
          <mxGeometry relative="1" as="geometry" />
        </mxCell>
        <mxCell id="wrY-g1YtcL3_QzCpNkvP-90" style="edgeStyle=orthogonalEdgeStyle;rounded=0;orthogonalLoop=1;jettySize=auto;html=1;exitX=0;exitY=0.5;exitDx=0;exitDy=0;entryX=0;entryY=0.5;entryDx=0;entryDy=0;fillColor=#fff2cc;strokeColor=#d6b656;" edge="1" parent="1" source="wrY-g1YtcL3_QzCpNkvP-85" target="wrY-g1YtcL3_QzCpNkvP-9">
          <mxGeometry relative="1" as="geometry" />
        </mxCell>
        <mxCell id="wrY-g1YtcL3_QzCpNkvP-91" style="edgeStyle=orthogonalEdgeStyle;rounded=0;orthogonalLoop=1;jettySize=auto;html=1;exitX=0;exitY=0.5;exitDx=0;exitDy=0;entryX=1;entryY=0.5;entryDx=0;entryDy=0;fillColor=#f8cecc;strokeColor=#b85450;" edge="1" parent="1" source="wrY-g1YtcL3_QzCpNkvP-81" target="wrY-g1YtcL3_QzCpNkvP-2">
          <mxGeometry relative="1" as="geometry" />
        </mxCell>
        <mxCell id="wrY-g1YtcL3_QzCpNkvP-92" value="admin_withdraw_model" style="swimlane;fontStyle=0;childLayout=stackLayout;horizontal=1;startSize=30;horizontalStack=0;resizeParent=1;resizeParentMax=0;resizeLast=0;collapsible=1;marginBottom=0;" vertex="1" parent="1">
          <mxGeometry x="660" y="150" width="156.5" height="240" as="geometry" />
        </mxCell>
        <mxCell id="wrY-g1YtcL3_QzCpNkvP-94" value="id: INT PK" style="text;strokeColor=none;fillColor=none;align=left;verticalAlign=middle;spacingLeft=4;spacingRight=4;overflow=hidden;points=[[0,0.5],[1,0.5]];portConstraint=eastwest;rotatable=0;" vertex="1" parent="wrY-g1YtcL3_QzCpNkvP-92">
          <mxGeometry y="30" width="156.5" height="30" as="geometry" />
        </mxCell>
        <mxCell id="wrY-g1YtcL3_QzCpNkvP-95" value="time: INT" style="text;strokeColor=none;fillColor=none;align=left;verticalAlign=middle;spacingLeft=4;spacingRight=4;overflow=hidden;points=[[0,0.5],[1,0.5]];portConstraint=eastwest;rotatable=0;" vertex="1" parent="wrY-g1YtcL3_QzCpNkvP-92">
          <mxGeometry y="60" width="156.5" height="30" as="geometry" />
        </mxCell>
        <mxCell id="wrY-g1YtcL3_QzCpNkvP-98" value="amount: DECIMAL" style="text;strokeColor=none;fillColor=none;align=left;verticalAlign=middle;spacingLeft=4;spacingRight=4;overflow=hidden;points=[[0,0.5],[1,0.5]];portConstraint=eastwest;rotatable=0;" vertex="1" parent="wrY-g1YtcL3_QzCpNkvP-92">
          <mxGeometry y="90" width="156.5" height="30" as="geometry" />
        </mxCell>
        <mxCell id="wrY-g1YtcL3_QzCpNkvP-99" value="fee: DECIMAL" style="text;strokeColor=none;fillColor=none;align=left;verticalAlign=middle;spacingLeft=4;spacingRight=4;overflow=hidden;points=[[0,0.5],[1,0.5]];portConstraint=eastwest;rotatable=0;" vertex="1" parent="wrY-g1YtcL3_QzCpNkvP-92">
          <mxGeometry y="120" width="156.5" height="30" as="geometry" />
        </mxCell>
        <mxCell id="wrY-g1YtcL3_QzCpNkvP-103" value="user_ids: JSON" style="text;strokeColor=none;fillColor=none;align=left;verticalAlign=middle;spacingLeft=4;spacingRight=4;overflow=hidden;points=[[0,0.5],[1,0.5]];portConstraint=eastwest;rotatable=0;" vertex="1" parent="wrY-g1YtcL3_QzCpNkvP-92">
          <mxGeometry y="150" width="156.5" height="30" as="geometry" />
        </mxCell>
        <mxCell id="wrY-g1YtcL3_QzCpNkvP-100" value="token: ONETOONE" style="text;strokeColor=#d6b656;fillColor=#fff2cc;align=left;verticalAlign=middle;spacingLeft=4;spacingRight=4;overflow=hidden;points=[[0,0.5],[1,0.5]];portConstraint=eastwest;rotatable=0;" vertex="1" parent="wrY-g1YtcL3_QzCpNkvP-92">
          <mxGeometry y="180" width="156.5" height="30" as="geometry" />
        </mxCell>
        <mxCell id="wrY-g1YtcL3_QzCpNkvP-101" value="network: ONETOONE" style="text;strokeColor=#b85450;fillColor=#f8cecc;align=left;verticalAlign=middle;spacingLeft=4;spacingRight=4;overflow=hidden;points=[[0,0.5],[1,0.5]];portConstraint=eastwest;rotatable=0;" vertex="1" parent="wrY-g1YtcL3_QzCpNkvP-92">
          <mxGeometry y="210" width="156.5" height="30" as="geometry" />
        </mxCell>
        <mxCell id="wrY-g1YtcL3_QzCpNkvP-105" style="edgeStyle=orthogonalEdgeStyle;rounded=0;orthogonalLoop=1;jettySize=auto;html=1;exitX=0;exitY=0.5;exitDx=0;exitDy=0;entryX=1;entryY=0.5;entryDx=0;entryDy=0;fillColor=#fff2cc;strokeColor=#d6b656;" edge="1" parent="1" source="wrY-g1YtcL3_QzCpNkvP-100" target="wrY-g1YtcL3_QzCpNkvP-9">
          <mxGeometry relative="1" as="geometry" />
        </mxCell>
        <mxCell id="wrY-g1YtcL3_QzCpNkvP-106" style="edgeStyle=orthogonalEdgeStyle;rounded=0;orthogonalLoop=1;jettySize=auto;html=1;exitX=0;exitY=0.5;exitDx=0;exitDy=0;entryX=1;entryY=0.5;entryDx=0;entryDy=0;fillColor=#f8cecc;strokeColor=#b85450;" edge="1" parent="1" source="wrY-g1YtcL3_QzCpNkvP-101" target="wrY-g1YtcL3_QzCpNkvP-2">
          <mxGeometry relative="1" as="geometry">
            <Array as="points">
              <mxPoint x="650" y="375" />
            </Array>
          </mxGeometry>
        </mxCell>
      </root>
    </mxGraphModel>
  </diagram>
</mxfile>
